<svg height="512" viewBox="0 0 60 40" width="512" xmlns="http://www.w3.org/2000/svg"><g id="049---Momo" fill="none"><g id="Icons" transform="translate(1 1)"><path id="Shape" d="m34 9c-.0008975 1.3881642.3209044 2.7575342.94 4h-14c-.6190956-1.2424658-.9408975-2.6118358-.94-4 .1149402-1.59876907.8292303-3.09520686 2-4.19 2.0432924-1.98916693 4.4104781-3.61576171 7-4.81.9683693.45217208 1.9099247.95967712 2.82 1.52 1.5318601.90820859 2.9373022 2.01440583 4.18 3.29-1.1707697 1.09479314-1.8850598 2.59123093-2 4.19z" fill="#dfc49c"/><path id="Shape" d="m31.5 8.75c-.000659 1.4579706.2847308 2.901907.84 4.25h-11.4c-.6190956-1.2424658-.9408975-2.6118358-.94-4 .1149402-1.59876907.8292303-3.09520686 2-4.19 2.0432924-1.98916693 4.4104781-3.61576171 7-4.81.9683693.45217208 1.9099247.95967712 2.82 1.52.7755351.6077347 1.5042576 1.27294465 2.18 1.99-1.4635616 1.36945281-2.3563815 3.24080337-2.5 5.24z" fill="#ffe0b2"/><path id="Shape" d="m20 9c-.0008975 1.3881642.3209044 2.7575342.94 4h-14c-.61909555-1.2424658-.94089751-2.6118358-.94-4 .11494016-1.59876907.82923028-3.09520686 2-4.19 2.0432924-1.98916693 4.4104781-3.61576171 7-4.81.9683693.45217208 1.9099247.95967712 2.82 1.52 1.5318601.90820859 2.9373022 2.01440583 4.18 3.29-1.1707697 1.09479314-1.8850598 2.59123093-2 4.19z" fill="#dfc49c"/><path id="Shape" d="m17.5 8.75c-.000659 1.4579706.2847308 2.901907.84 4.25h-11.4c-.61909555-1.2424658-.94089751-2.6118358-.94-4 .11494016-1.59876907.82923028-3.09520686 2-4.19 2.0432924-1.98916693 4.4104781-3.61576171 7-4.81.9683693.45217208 1.9099247.95967712 2.82 1.52.7755351.6077347 1.5042576 1.27294465 2.18 1.99-1.4635616 1.36945281-2.3563815 3.24080337-2.5 5.24z" fill="#ffe0b2"/><path id="Shape" d="m52 9c.0020342 1.3882953-.3198283 2.757923-.94 4h-15.06v.13l-1.06-.13c-.6190956-1.2424658-.9408975-2.6118358-.94-4 .1149402-1.59876907.8292303-3.09520686 2-4.19 1.6155212-1.62321819 3.4704132-2.98909322 5.5-4.05.9-.49 1.5-.76 1.5-.76s9 4.03 9 9z" fill="#dfc49c"/><path id="Shape" d="m49 9c.0020342 1.3882953-.3198283 2.757923-.94 4h-13.12c-.6190956-1.2424658-.9408975-2.6118358-.94-4 .1149402-1.59876907.8292303-3.09520686 2-4.19 1.6155212-1.62321819 3.4704132-2.98909322 5.5-4.05 2.56 1.39 7.5 4.56 7.5 8.24z" fill="#ffe0b2"/><path id="Shape" d="m55 15v5h-52v-5c.0032948-1.1032019.89679813-1.9967052 2-2h48c1.1032019.0032948 1.9967052.8967981 2 2z" fill="#f57c00"/><path id="Shape" d="m52 15v5h-49v-5c.0032948-1.1032019.89679813-1.9967052 2-2h45c1.1032019.0032948 1.9967052.8967981 2 2z" fill="#ff9801"/><rect id="Rectangle-path" fill="#91562d" height="18" rx="2" width="58" y="20"/><path id="Shape" d="m58 22v14c-.0032948 1.1032019-.8967981 1.9967052-2 2h-16.83l-7.59-7.59c-.3744562-.3736892-.5848881-.8809811-.5848881-1.41s.2104319-1.0363108.5848881-1.41l7.59-7.59h16.83c1.1032019.0032948 1.9967052.8967981 2 2z" fill="#783e22"/><path id="Shape" d="m55 22v14c-.0032948 1.1032019-.8967981 1.9967052-2 2h-13.83l-7.59-7.59c-.3744562-.3736892-.5848881-.8809811-.5848881-1.41s.2104319-1.0363108.5848881-1.41l7.59-7.59h13.83c1.1032019.0032948 1.9967052.8967981 2 2z" fill="#a0522d"/></g><path id="Shape" d="m57 21v-4c0-1.6568542-1.3431458-3-3-3h-.474c.3113673-.9696666.4712484-1.9815721.474-3 0-5.554-9.2-9.737-9.591-9.913-.2610369-.11594872-.5589631-.11594872-.82 0-2.3907718 1.11609705-4.6095813 2.56847604-6.589 4.313-1.9771983-1.74915354-4.1976461-3.20228035-6.592-4.314-.2607659-.1172193-.5592341-.1172193-.82 0-2.3904811 1.11648855-4.6089521 2.5692032-6.588 4.314-1.9771983-1.74915354-4.1976461-3.20228035-6.592-4.314-.2601968-.11662082-.5578032-.11662082-.818 0-.39.177-9.59 4.36-9.59 9.914.00530184 1.0184558.16615728 2.0301252.477 3h-.477c-1.65685425 0-3 1.3431458-3 3v4c-1.65685425 0-3 1.3431458-3 3v14c0 1.6568542 1.34314575 3 3 3h54c1.6568542 0 3-1.3431458 3-3v-14c0-1.6568542-1.3431458-3-3-3zm-12.994-17.895c2.568 1.24 7.994 4.55 7.994 7.895-.0017535 1.0296286-.2056076 2.0488992-.6 3h-14.8c-.3911314-.9520896-.5948561-1.9707129-.6-3 0-3.248 5.1-6.457 8.006-7.895zm-14 0c2.0402115.99283648 3.9361916 2.25805668 5.636 3.761-1.6912819 1.97330157-2.1406703 4.7251785-1.165 7.134h-11.877c-.3911314-.9520896-.5948561-1.9707129-.6-3 0-3.245 5.088-6.45 8-7.892zm-14.006 0c2.0426502.99301578 3.9407195 2.25929243 5.642 3.764-1.6901114 1.97266371-2.1394412 4.7230251-1.165 7.131h-11.877c-.39113141-.9520896-.59485607-1.9707129-.6-3 0-3.346 5.428-6.656 8-7.895zm-11 13.895c0-.5522847.44771525-1 1-1h48c.5522847 0 1 .4477153 1 1v4h-50zm-2 22c-.55228475 0-1-.4477153-1-1v-14c0-.5522847.44771525-1 1-1h34.753c-6.374 6.373-6.024 5.973-6.3 6.43l-1.893-1.262c-.4595009-.306518-1.0804819-.1825009-1.387.277-.306518.4595009-.1825009 1.080482.277 1.387l1.75 1.168-1.752 1.168c-.4595009.306518-.583518.9274991-.277 1.387.3065181.4595009.9274991.583518 1.387.277l1.893-1.262c.28.456-.1.029 6.305 6.43zm55-1c0 .5522847-.4477153 1-1 1h-16.419l-7.292-7.293c-.3903819-.3904999-.3903819-1.0235001 0-1.414l7.292-7.293h16.419c.5522847 0 1 .4477153 1 1z" fill="#000" transform="translate(0 -1)"/></g></svg>