<svg height="512" viewBox="0 0 60 57" width="512" xmlns="http://www.w3.org/2000/svg"><g id="Page-1" fill="none" fill-rule="evenodd"><g id="049---Washing-Beans" fill-rule="nonzero"><path id="Shape" d="m19.89 38.89c-.1732521.2826166-.3742458.5472584-.6.79-.09.11-.19.22-.29.32-3.32 3.31-9.58 2.42-13.99-2.01-3.65-3.63-4.89-8.51-3.38-11.97.13795594-.3144586.29837054-.618578.48-.91 2.62 2.5 4.6.6 7.22 3.22 2.67 2.67.67 4.67 3.34 7.34 2.62 2.62 4.6.72 7.22 3.22z" fill="#cf976a"/><path id="Shape" d="m21 34.68c.0201016.8989893-.1117522 1.7949187-.39 2.65-.07.22-.15.44-.24.65-.1299603.3182519-.290725.623035-.48.91-2.62-2.5-4.6-.6-7.22-3.22-2.67-2.67-.67-4.67-3.34-7.34-2.62-2.62-4.6-.72-7.22-3.22.17325207-.2826166.37424583-.5472584.6-.79.09-.11.19-.22.29-.32 3.32-3.31 9.58-2.42 13.99 2.01 1.3136657 1.2917808 2.3631997 2.8270214 3.09 4.52.5704322 1.3113824.8827946 2.7204083.92 4.15z" fill="#cb8252"/><path id="Shape" d="m42 33.48c-.01 4.69-5.07 8.49-11.32 8.48-4.4.01-8.2-1.87-10.07-4.63.1777841-.5352402.2951797-1.0886766.35-1.65.03-.33.04-.66.04-1 2.26-.67 2.78-2.62 5.91-2.62 3.77 0 3.77 2.83 7.55 2.83 3.7 0 3.76-2.74 7.38-2.83.0717968.3225807.1186023.6502194.14.98.01.15.02.29.02.44z" fill="#a56a43"/><path id="Shape" d="m41.84 32.06c-3.62.09-3.68 2.83-7.38 2.83-3.78 0-3.78-2.83-7.55-2.83-3.13 0-3.65 1.95-5.91 2.62-.01-.34-.03-.69-.07-1.04-.1402533-1.0705642-.4262356-2.1169228-.85-3.11 1.6-3.24 5.74-5.54 10.6-5.53 5.13-.01 9.46 2.56 10.85 6.07.1287985.32148.2324432.6524746.31.99z" fill="#805333"/><path id="Shape" d="m20.37 37.98c-.1299603.3182519-.290725.623035-.48.91-.1732521.2826166-.3742458.5472584-.6.79-.0323441-.0201524-.0625061-.0436117-.09-.07-.8129446-.7819273-1.8831253-1.2405762-3.01-1.29-3.3038449-.2504115-5.9295885-2.8761551-6.18-6.18-.04866978-1.1733453-.54628803-2.2831414-1.39-3.1-.81262338-.842515-1.92023323-1.3371757-3.09-1.38-1.44539185-.1011731-2.81667468-.6778151-3.9-1.64.13795594-.3144586.29837054-.618578.48-.91.17325207-.2826166.37424583-.5472584.6-.79.03234407.0201524.0625061.0436117.09.07.81294463.7819273 1.88312531 1.2405762 3.01 1.29 1.60032898.1055274 3.10592706.7960381 4.23 1.94 1.1506468 1.1244904 1.8451318 2.6345501 1.95 4.24.0486698 1.1733453.546288 2.2831414 1.39 3.1.8126234.842515 1.9202332 1.3371757 3.09 1.38 1.4453918.1011731 2.8166747.6778151 3.9 1.64z" fill="#805333"/><path id="Shape" d="m41.98 33.04c-.0342614.0162505-.0722112.0231504-.11.02-1.1311795.0223307-2.2154696.4560468-3.05 1.22-2.5179207 2.1503951-6.2270067 2.1461513-8.74-.01-1.8015452-1.6134927-4.5284548-1.6134927-6.33 0-.7286789.609645-1.5670074 1.0746288-2.47 1.37-.1034255.0323204-.2118011.0458674-.32.04.03-.33.04-.66.04-1s-.03-.69-.07-1.04c.5853738-.23017 1.1292053-.5544421 1.61-.96 2.5129933-2.1561513 6.2220793-2.1603951 8.74-.01 1.8003462 1.6227774 4.5345436 1.62709 6.34.01 1.0914941-.9509529 2.4653687-1.516666 3.91-1.61.1287985.32148.2324432.6524746.31.99.0717968.3225807.1186023.6502194.14.98z" fill="#603e26"/><rect id="Rectangle-path" fill="#95a5a5" height="14" rx="7" width="58" x="1" y="42"/><path id="Shape" d="m52 57h-44c-4.418278 0-8-3.581722-8-8s3.581722-8 8-8h44c4.418278 0 8 3.581722 8 8s-3.581722 8-8 8zm-44-14c-3.3137085 0-6 2.6862915-6 6s2.6862915 6 6 6h44c3.3137085 0 6-2.6862915 6-6s-2.6862915-6-6-6z" fill="#547580"/><circle id="Oval" cx="8" cy="49" fill="#bdc3c7" r="3"/><circle id="Oval" cx="19" cy="49" fill="#bdc3c7" r="3"/><circle id="Oval" cx="41" cy="49" fill="#bdc3c7" r="3"/><circle id="Oval" cx="52" cy="49" fill="#bdc3c7" r="3"/><circle id="Oval" cx="30" cy="49" fill="#bdc3c7" r="3"/><path id="Shape" d="m52 35.826v-.826h-5c-.5522847 0-1-.4477153-1-1v-4c0-.5522847.4477153-1 1-1h5v-.826c.0000304-.3905653.227441-.745371.5823033-.9085088.3548624-.1631378.7722273-.1047492 1.0686967.1495088l4.463 3.826c.2214665.1899799.3489094.4672128.3489094.759s-.1274429.5690201-.3489094.759l-4.463 3.826c-.2964694.254258-.7138343.3126466-1.0686967.1495088-.3548623-.1631378-.5822729-.5179435-.5823033-.9085088z" fill="#e64c3c"/><g fill="#3b97d3"><path id="Shape" d="m12 2h-2c-.55228475 0-1-.44771525-1-1s.44771525-1 1-1h2c.5522847 0 1 .44771525 1 1s-.4477153 1-1 1z"/><path id="Shape" d="m20 2h-4c-.5522847 0-1-.44771525-1-1s.4477153-1 1-1h4c.5522847 0 1 .44771525 1 1s-.4477153 1-1 1z"/><path id="Shape" d="m50 2h-2c-.5522847 0-1-.44771525-1-1s.4477153-1 1-1h2c.5522847 0 1 .44771525 1 1s-.4477153 1-1 1z"/><path id="Shape" d="m44 2h-4c-.5522847 0-1-.44771525-1-1s.4477153-1 1-1h4c.5522847 0 1 .44771525 1 1s-.4477153 1-1 1z"/><path id="Shape" d="m30 22c-.5522847 0-1-.4477153-1-1v-2c0-.5522847.4477153-1 1-1s1 .4477153 1 1v2c0 .5522847-.4477153 1-1 1z"/><path id="Shape" d="m30 16c-.5522847 0-1-.4477153-1-1v-4c0-.5522847.4477153-1 1-1s1 .4477153 1 1v4c0 .5522847-.4477153 1-1 1z"/><path id="Shape" d="m15.857 16.143c-.4043959-.0000863-.7689341-.2437275-.923678-.6173454-.1547439-.373618-.0692299-.8036603.216678-1.0896546l1.415-1.415c.3923789-.3789722 1.0160848-.3735524 1.4018186.0121814s.3911536 1.0094397.0121814 1.4018186l-1.415 1.415c-.1874927.1875494-.4418052.2929434-.707.293z"/><path id="Shape" d="m20.1 11.9c-.4043959-.0000863-.7689341-.2437275-.923678-.6173454-.1547439-.373618-.0692299-.8036603.216678-1.0896546l2.828-2.828c.2510745-.25995658.6228779-.3642126.9725073-.27269716.3496295.09151544.6226744.3645604.7141899.71418984.0915154.34962943-.0127406.72143285-.2726972.97250732l-2.828 2.828c-.1874927.1875494-.4418052.2929434-.707.293z"/><path id="Shape" d="m44.143 16.143c-.2651948-.0000566-.5195073-.1054506-.707-.293l-1.415-1.415c-.3789722-.3923789-.3735524-1.0160848.0121814-1.4018186s1.0094397-.3911536 1.4018186-.0121814l1.415 1.415c.2859079.2859943.3714219.7160366.216678 1.0896546-.1547439.3736179-.5192821.6172591-.923678.6173454z"/><path id="Shape" d="m39.9 11.9c-.2651948-.0000566-.5195073-.1054506-.707-.293l-2.828-2.828c-.3789722-.39237889-.3735524-1.01608478.0121814-1.40181858.3857338-.38573379 1.0094397-.39115363 1.4018186-.01218142l2.828 2.828c.2859079.2859943.3714219.7160366.216678 1.0896546-.1547439.3736179-.5192821.6172591-.923678.6173454z"/><path id="Shape" d="m44.143 16.143c-.2651948-.0000566-.5195073-.1054506-.707-.293l-1.415-1.415c-.3789722-.3923789-.3735524-1.0160848.0121814-1.4018186s1.0094397-.3911536 1.4018186-.0121814l1.415 1.415c.2859079.2859943.3714219.7160366.216678 1.0896546-.1547439.3736179-.5192821.6172591-.923678.6173454z"/><path id="Shape" d="m39.9 11.9c-.2651948-.0000566-.5195073-.1054506-.707-.293l-2.828-2.828c-.3789722-.39237889-.3735524-1.01608478.0121814-1.40181858.3857338-.38573379 1.0094397-.39115363 1.4018186-.01218142l2.828 2.828c.2859079.2859943.3714219.7160366.216678 1.0896546-.1547439.3736179-.5192821.6172591-.923678.6173454z"/><path id="Shape" d="m11.522 9.653c-.4770598-.00018714-.8875577-.33733041-.9804619-.80525652-.0929043-.4679261.1576586-.9363195.5984619-1.11874348l1.847-.764c.5103111-.21152506 1.0954749.03068889 1.307.541s-.0306889 1.09547494-.541 1.307l-1.848.764c-.1214324.05025422-.2515797.07607978-.383.076z"/><path id="Shape" d="m17.065 7.357c-.476119-.00132867-.8852765-.33815933-.9780443-.80515527-.0927678-.46699595.1565829-.93463789.5960443-1.11784473l3.7-1.531c.3301134-.13683273.7081502-.08715798.9917075.13031225.2835573.21747024.4295561.56969706.383.92400002s-.2785941.65685502-.6087075.79368773l-3.7 1.53c-.1217433.0503833-.2522431.07621139-.384.076z"/><path id="Shape" d="m37.653 20.478c-.4046724-.0000657-.7694151-.244017-.924-.618l-.764-1.847c-.1368327-.3301134-.087158-.7081502.1303123-.9917075.2174702-.2835573.569697-.4295561.924-.383.3543029.0465561.656855.2785941.7936877.6087075l.764 1.848c.1279557.3086131.0933432.66074-.0922534.9385324-.1855967.2777924-.4976587.4445517-.8317466.4444676z"/><path id="Shape" d="m35.357 14.935c-.4043083-.0004701-.7685544-.2443532-.923-.618l-1.534-3.695c-.1368327-.3301134-.087158-.70815016.1303123-.99170747.2174702-.28355732.569697-.42955609.924-.383.3543029.04655609.656855.27859406.7936877.60870747l1.53 3.7c.1279557.3086131.0933432.66074-.0922534.9385324-.1855967.2777924-.4976587.4445517-.8317466.4444676z"/><path id="Shape" d="m22.347 20.478c-.3340879.0000841-.6461499-.1666752-.8317466-.4444676-.1855966-.2777924-.2202091-.6299193-.0922534-.9385324l.765-1.848c.1316192-.3376241.43559-.5776264.7945371-.6273323.358947-.0497059.7166983.0986631.9351117.3878157.2184134.2891527.2633091.6738391.1173512 1.0055166l-.764 1.847c-.1545849.373983-.5193276.6179343-.924.618z"/><path id="Shape" d="m24.643 14.935c-.3340879.0000841-.6461499-.1666752-.8317466-.4444676-.1855966-.2777924-.2202091-.6299193-.0922534-.9385324l1.53-3.7c.1368327-.33011341.4393848-.56215138.7936877-.60870747.354303-.04655609.7065298.09944268.924.383.2174703.28355731.267145.66159407.1303123.99170747l-1.531 3.7c-.1547569.3732546-.5189349.6166976-.923.617z"/><path id="Shape" d="m48.478 9.653c-.1314203.00007978-.2615676-.02574578-.383-.076l-1.848-.764c-.3301134-.13683272-.5621514-.43938477-.6087075-.79368773s.0994427-.70652977.383-.924.6615941-.26714499.9917075-.13031227l1.847.764c.4408033.18242398.6913662.65081738.5984619 1.11874348-.0929042.46792611-.5034021.80506938-.9804619.80525652z"/><path id="Shape" d="m42.935 7.357c-.1314203.00007978-.2615676-.02574578-.383-.076l-3.7-1.53c-.5111395-.21262964-.7531296-.79936046-.5405-1.31049999.2126297-.51113952.7993605-.75312962 1.3105-.54050001l3.7 1.531c.4394614.18320684.6888121.65084878.5960443 1.11784473-.0927678.46699594-.5019253.8038266-.9780443.80515527z"/><path id="Shape" d="m48.478 9.653c-.1314203.00007978-.2615676-.02574578-.383-.076l-1.848-.764c-.3301134-.13683272-.5621514-.43938477-.6087075-.79368773s.0994427-.70652977.383-.924.6615941-.26714499.9917075-.13031227l1.847.764c.4408033.18242398.6913662.65081738.5984619 1.11874348-.0929042.46792611-.5034021.80506938-.9804619.80525652z"/><path id="Shape" d="m42.935 7.357c-.1314203.00007978-.2615676-.02574578-.383-.076l-3.7-1.53c-.5111395-.21262964-.7531296-.79936046-.5405-1.31049999.2126297-.51113952.7993605-.75312962 1.3105-.54050001l3.7 1.531c.4394614.18320684.6888121.65084878.5960443 1.11784473-.0927678.46699594-.5019253.8038266-.9780443.80515527z"/></g><path id="Shape" d="m34.9 1c.2932007-.0034914.5729543.12278003.7642881.34497413.1913338.22219411.2746836.51759106.2277119.80702587-.5475648 2.82009367-3.0172391 4.85636544-5.89 4.85636544s-5.3424352-2.03627177-5.89-4.85636544c-.0468467-.28873838.0359966-.58344333.2264257-.80548211.1904291-.22203879.4690693-.34882067.7615743-.34651789z" fill="#a5a5a4"/></g></g></svg>