<?xml version="1.0" standalone="no"?>
<!DOCTYPE svg PUBLIC "-//W3C//DTD SVG 20010904//EN"
 "http://www.w3.org/TR/2001/REC-SVG-20010904/DTD/svg10.dtd">
<svg version="1.0" xmlns="http://www.w3.org/2000/svg"
 width="177.000000pt" height="57.000000pt" viewBox="0 0 177.000000 57.000000"
 preserveAspectRatio="xMidYMid meet">

<g transform="translate(0.000000,57.000000) scale(0.100000,-0.100000)"
fill="#000000" stroke="none">
<path d="M92 476 c-39 -45 -49 -89 -28 -121 24 -37 34 -30 29 18 -4 31 0 54
13 78 l19 34 3 -60 c2 -33 2 -106 0 -163 -2 -56 0 -102 3 -102 3 0 14 9 25 21
17 19 19 38 19 173 l0 151 -26 3 c-19 2 -34 -6 -57 -32z"/>
<path d="M580 480 c0 -25 -4 -30 -25 -30 -32 0 -34 -27 -2 -32 18 -2 23 -10
25 -43 4 -44 -13 -115 -28 -115 -5 0 -11 9 -15 20 -3 11 -20 29 -36 41 -22 15
-27 25 -20 32 16 16 14 57 -3 57 -26 0 -48 -31 -43 -59 6 -27 -35 -111 -53
-111 -5 0 -10 35 -12 78 l-3 77 -30 0 c-25 0 -33 -7 -52 -43 l-22 -44 -3 44
c-2 31 -8 44 -21 46 -15 3 -17 -7 -17 -96 0 -81 3 -101 15 -106 9 -3 18 0 20
7 2 6 11 37 19 68 9 31 25 67 36 80 l19 24 -2 -76 c-3 -124 33 -138 94 -38 17
27 35 49 39 49 14 0 40 -42 40 -63 0 -17 -5 -18 -35 -13 -30 6 -35 4 -35 -12
0 -45 87 -34 126 15 l21 27 7 -27 c3 -15 15 -31 26 -37 16 -9 25 -6 45 14 l25
25 24 -24 c26 -26 46 -25 77 2 14 12 17 12 22 -2 7 -18 48 -20 65 -3 9 9 15 9
24 0 15 -15 61 -15 76 0 7 7 12 8 12 4 0 -5 -18 -28 -40 -52 -28 -31 -40 -52
-40 -74 0 -61 87 -65 110 -4 6 14 10 47 10 73 0 38 8 62 35 106 19 32 37 67
41 77 3 10 12 18 20 18 11 0 14 -15 14 -61 0 -33 5 -69 10 -80 12 -21 50 -25
68 -7 9 9 15 9 24 0 17 -17 63 -15 78 3 12 14 15 14 31 -1 12 -11 28 -15 47
-11 16 3 34 1 40 -5 16 -16 32 0 32 35 0 42 19 107 30 107 6 0 10 -21 10 -46
0 -25 5 -54 10 -65 14 -25 40 -24 40 2 0 29 21 109 29 109 3 0 7 -23 9 -51 4
-65 16 -89 47 -89 27 0 49 30 42 58 -3 13 -7 10 -16 -12 -9 -23 -14 -26 -26
-16 -9 8 -15 37 -17 88 -3 70 -5 77 -25 80 -17 3 -24 -6 -39 -50 l-19 -53 -5
50 c-4 41 -9 51 -26 53 -16 2 -25 -5 -35 -30 l-13 -33 -3 33 c-3 24 -9 32 -24
32 -17 0 -19 -7 -19 -73 0 -46 -5 -80 -13 -92 -25 -34 -37 -8 -37 81 0 83 -1
85 -22 83 -13 -1 -31 1 -40 6 -44 18 -88 -42 -88 -122 0 -52 -13 -74 -32 -55
-9 9 -11 61 -5 132 2 22 -2 25 -30 24 -23 -1 -33 3 -33 13 0 9 -8 13 -22 11
-19 -2 -23 -9 -24 -43 -1 -43 -16 -89 -33 -100 -7 -4 -11 17 -11 65 0 68 -1
71 -22 69 -13 -1 -31 1 -40 6 -43 18 -79 -30 -87 -118 -4 -46 -10 -62 -21 -62
-12 0 -16 18 -20 85 -4 76 -7 85 -25 86 -11 0 -30 4 -42 8 -44 14 -83 -34 -83
-104 0 -15 -9 -38 -19 -51 -31 -38 -42 -14 -39 82 3 75 5 84 23 87 44 7 50 15
15 21 -31 5 -35 10 -38 39 -2 24 -8 32 -23 32 -14 0 -19 -7 -19 -30z m205
-140 c3 -16 3 -44 0 -64 -15 -78 -65 -68 -65 13 0 79 50 119 65 51z m195 -30
c0 -50 -27 -99 -48 -86 -28 17 -25 111 5 141 24 25 43 1 43 -55z m328 58 c19
-19 15 -102 -7 -129 -28 -35 -46 -13 -45 56 0 68 24 101 52 73z m-328 -274
c-8 -24 -17 -34 -28 -32 -28 5 -25 43 5 79 26 31 28 32 31 11 2 -12 -2 -38 -8
-58z"/>
</g>
</svg>
